<svg class="svg-icon svg-n-linkedin" xmlns="http://www.w3.org/2000/svg" viewBox="0 0 21.99 22.131">
  <defs><style>.link-cls-1{fill:none}</style><clipPath id="link-clip-path"><path id="Path_131" data-name="Path 131" class="link-cls-1" d="M1403.535-522.583h-18.741a1.605 1.605 0 0 0-1.624 1.583v18.96a1.605 1.605 0 0 0 1.624 1.585h18.741a1.606 1.606 0 0 0 1.625-1.585V-521a1.606 1.606 0 0 0-1.625-1.583zm-13.7 18.526h-3.321v-9.993h3.321zm-1.661-11.358h-.022a1.719 1.719 0 0 1-1.835-1.726 1.733 1.733 0 0 1 1.879-1.726 1.726 1.726 0 0 1 1.857 1.726 1.733 1.733 0 0 1-1.878 1.725zm13.637 11.358h-3.322v-5.343c0-1.343-.48-2.259-1.682-2.259a1.819 1.819 0 0 0-1.7 1.215 2.28 2.28 0 0 0-.109.81v5.581h-3.321s.043-9.056 0-9.993H1395v1.414a3.3 3.3 0 0 1 2.993-1.65c2.185 0 3.824 1.429 3.824 4.5v5.731z" transform="translate(-1383.17 522.583)"></path></clipPath><clipPath id="link-clip-path-2"><path id="Path_130" data-name="Path 130" class="link-cls-1" d="M0-117.436h1619.358V-750H0z" transform="translate(0 750)"></path></clipPath></defs><g id="Icon_LinkedIn" clip-path="url(#link-clip-path)"><g id="Group_241" data-name="Group 241" transform="translate(-1166.587 -191.807)" clip-path="url(#link-clip-path-2)"><path id="Path_129" data-name="Path 129" d="M1378.17-497.019h30.43v-30.564h-30.43z" transform="translate(-215.8 715.174)" fill="#fff" data-darkreader-inline-fill="" style="--darkreader-inline-fill: var(--darkreader-background-ffffff, #0e0e0d);"></path></g></g>
</svg>
